# xmcd
#
# Track frame offsets:
#	150
#	20835
#	34572
#	49371
#	65180
#	78819
#	93628
#	109559
#	122822
#	138460
#
# Disc length: 2038 seconds
#
# Revision: 1
# Processed by: cddbd v1.5.2PL0 Copyright (c) Steve Scherf et al.
# Submitted via: audiograbber 1.80
#
DISCID=8a07f40a
DTITLE=alice - lo mejor
DYEAR=1900
DGENRE=
TTITLE0=rey
TTITLE1=ase
TTITLE2=tre
TTITLE3=dos
TTITLE4=ju
TTITLE5=jefa
TTITLE6=es
TTITLE7=cas
TTITLE8=ui
TTITLE9=po
EXTD=
EXTT0=
EXTT1=
EXTT2=
EXTT3=
EXTT4=
EXTT5=
EXTT6=
EXTT7=
EXTT8=
EXTT9=
PLAYORDER=
